<svg viewBox="0 0 200 200" fill="none" xmlns="http://www.w3.org/2000/svg">
<g clip-path="url(#clip0_59_862)">
<path d="M159.48 19.6074C157.73 28.4056 153.066 36.1526 146.54 41.8041C146.54 41.8041 113.611 5.86669 51.2016 27.2662L51.6602 27.3367C41.5814 27.7988 32.0987 30.6387 23.7344 35.3201C38.4593 17.9705 59.0015 5.71146 82.3448 1.55575C88.0739 0.532694 93.9759 0 99.9978 0C122.276 0 142.857 7.28838 159.48 19.6074Z" fill="url(#paint0_linear_59_862)"/>
<path d="M118.336 87.9085C118.318 87.8979 118.304 87.8874 118.286 87.8768C118.262 87.8591 118.23 87.838 118.198 87.8168C117.196 87.1571 113.39 84.79 107.777 82.1441C107.77 82.1406 107.742 82.13 107.721 82.1194C106.983 81.7984 106.249 81.488 105.523 81.1881C105.523 81.1881 105.099 81.0153 104.644 80.8353C104.404 80.7401 104.165 80.6484 103.928 80.5531C97.7228 78.1154 92.0255 76.5244 87.7428 75.5225C87.3759 75.4378 87.0196 75.3567 86.6774 75.2791C86.4869 75.2368 86.2999 75.1944 86.12 75.1556C83.4001 74.5559 81.7985 74.3125 81.7985 74.3125C81.7632 74.309 81.7314 74.3019 81.6962 74.2984C81.6926 74.2948 81.6856 74.2948 81.682 74.2948C80.5602 74.1043 79.9428 74.0267 79.9428 74.0267C79.9252 74.0232 79.897 74.0197 79.8582 74.0162C79.8476 74.0162 79.837 74.0126 79.8264 74.0126C79.7241 74.002 79.5724 73.9809 79.3678 73.9597C79.3572 73.9597 79.3431 73.9597 79.329 73.9562C76.1434 73.5258 72.4922 73.1942 67.9661 73.4729H67.952C62.7661 73.7904 58.7762 74.7605 56.9488 75.2509C54.7581 75.84 52.9095 76.4856 51.4808 77.0359C51.3855 77.0712 51.2938 77.11 51.2021 77.1453C51.188 77.1488 51.1774 77.1559 51.1633 77.1629C51.0821 77.1947 50.9622 77.2441 50.8211 77.304C48.2211 78.3835 41.5924 81.2763 31.7182 88.0355C27.94 90.6214 23.2692 94.0574 18.1292 98.4495C13.5466 102.058 7.59177 107.103 0.970137 113.771C0.963082 113.774 0.959554 113.778 0.952499 113.785L0.945443 113.788C0.892526 113.428 0.843138 113.069 0.800804 112.705C0.786693 112.617 0.77611 112.532 0.769054 112.444C0.705554 111.947 0.645582 111.449 0.592666 110.948C0.589138 110.941 0.589138 110.931 0.589138 110.924C0.532694 110.419 0.483305 109.911 0.437444 109.403C0.398638 109.012 0.363361 108.617 0.335138 108.221C0.303388 107.837 0.271638 107.449 0.246944 107.061C0.236361 106.951 0.229305 106.842 0.225777 106.733C0.204611 106.443 0.186972 106.151 0.169333 105.858C0.155222 105.618 0.141111 105.375 0.130528 105.135C0.116416 104.874 0.105833 104.613 0.0952499 104.351C0.0846665 104.154 0.077611 103.956 0.0705554 103.759C0.0564444 103.452 0.0493888 103.145 0.0423333 102.838C0.0388055 102.753 0.0352777 102.672 0.0352777 102.591C0.0211666 102.189 0.0141111 101.787 0.0105833 101.385C0.00352777 100.922 0 100.464 0 100.002C0 99.4443 0.00352777 98.8905 0.0141111 98.3366C0.0141111 98.3049 0.0141111 98.2696 0.0176389 98.2378C0.0211666 97.9133 0.0282222 97.5887 0.0388055 97.2642C0.0423333 97.0208 0.0493888 96.7773 0.0599721 96.5339C0.0670277 96.2835 0.077611 96.033 0.0881943 95.786C0.0952499 95.5779 0.105833 95.3733 0.116416 95.1652C0.137583 94.6783 0.165805 94.188 0.197555 93.7011C0.211666 93.4683 0.225777 93.2355 0.243416 93.0026C0.268111 92.6498 0.292805 92.2971 0.321027 91.9478C0.377472 91.2423 0.440972 90.5402 0.511527 89.8417C9.5779 76.6796 22.9623 66.7207 38.6185 62.0111C45.1237 60.0532 52.017 59.002 59.1607 59.002C78.9022 59.002 96.7668 67.0382 109.661 80.0204C110.426 80.8847 111.22 81.7243 112.039 82.5357C112.285 82.7827 112.536 83.0261 112.79 83.2695C113.04 83.5094 113.298 83.7493 113.555 83.9856C113.855 84.2608 114.155 84.5324 114.462 84.8006C114.681 84.9981 114.903 85.1886 115.125 85.3756C115.432 85.6402 115.746 85.8977 116.06 86.1517C116.237 86.2999 116.42 86.4445 116.6 86.5891C116.812 86.7549 117.027 86.9243 117.242 87.0865C117.478 87.27 117.718 87.4534 117.962 87.6298C118.085 87.7215 118.209 87.8168 118.336 87.9085Z" fill="#48CAE4"/>
<path d="M79.3288 73.9563C77.6637 73.7728 72.9717 73.3248 67.9658 73.473C72.492 73.1943 76.1432 73.5259 79.3288 73.9563Z" fill="#0096C8"/>
<path d="M81.7986 74.3124C81.7986 74.3124 83.4002 74.5559 86.1201 75.1556C84.2645 74.7534 82.7546 74.4747 81.6963 74.2983C81.7316 74.3019 81.7633 74.3089 81.7986 74.3124Z" fill="#0096C8"/>
<path d="M50.8207 77.3042C49.9881 77.6534 49.1838 78.0168 48.4006 78.3908C48.1502 78.5107 47.8997 78.6306 47.6563 78.7541C47.4093 78.8741 47.1659 78.9975 46.9225 79.1245C46.6791 79.248 46.4392 79.3715 46.1993 79.502C45.9594 79.629 45.723 79.756 45.4867 79.8865C45.3632 79.95 45.2433 80.0171 45.1198 80.0876C44.9399 80.1864 44.76 80.2852 44.5836 80.3875C44.1849 80.6132 43.7898 80.8426 43.3947 81.0754C43.1654 81.2094 42.9361 81.347 42.7068 81.4846C42.4634 81.6292 42.2235 81.7774 41.9801 81.9256C41.7684 82.0561 41.5567 82.1866 41.3451 82.3207C41.1193 82.4583 40.8935 82.5994 40.6642 82.7475C40.4384 82.8887 40.2127 83.0333 39.9834 83.1779C39.5318 83.4672 39.0767 83.76 38.6181 84.0564C31.4073 88.7271 1.88342 113.016 0.969727 113.771C7.59136 107.103 13.5462 102.059 18.1288 98.4497C23.2688 94.0576 27.9395 90.6215 31.7178 88.0357C41.592 81.2765 48.2207 78.3837 50.8207 77.3042Z" fill="#0096C8"/>
<path d="M79.9431 74.0267C79.9431 74.0267 91.2037 75.4484 104.645 80.8353C96.8799 77.7485 87.9582 75.3002 79.8584 74.0161C79.8972 74.0196 79.9254 74.0232 79.9431 74.0267Z" fill="#0096C8"/>
<path d="M163.84 176.967C163.4 177.334 162.955 177.697 162.507 178.057C162.228 178.283 161.946 178.505 161.664 178.724C161.382 178.946 161.099 179.165 160.814 179.384C156.527 182.675 151.966 185.624 147.172 188.196C146.925 188.327 146.674 188.461 146.424 188.591C146.374 188.616 146.329 188.64 146.279 188.669C145.941 188.845 145.598 189.021 145.256 189.194C144.882 189.385 144.505 189.575 144.127 189.759C143.774 189.935 143.422 190.105 143.065 190.274C142.998 190.306 142.931 190.337 142.868 190.369C142.55 190.521 142.226 190.672 141.905 190.817C141.499 191.008 141.093 191.191 140.684 191.375C140.3 191.547 139.915 191.713 139.527 191.879C139.266 191.995 139.001 192.105 138.737 192.218C138.472 192.331 138.208 192.44 137.943 192.546C137.689 192.652 137.435 192.754 137.181 192.856C135.565 193.505 133.925 194.112 132.267 194.677C55.1427 121.867 49.329 186.231 49.329 186.231C48.9832 186.026 48.6375 185.822 48.2918 185.61C47.805 185.317 47.3217 185.017 46.8419 184.714C46.542 184.527 46.2422 184.337 45.9423 184.143C45.7448 184.016 45.5472 183.889 45.3496 183.758C45.1627 183.638 44.9757 183.515 44.7923 183.391C44.5594 183.239 44.3301 183.084 44.1008 182.929C43.8821 182.781 43.6634 182.633 43.4446 182.481C43.1906 182.305 42.9331 182.128 42.6791 181.948C42.0371 181.5 41.3985 181.045 40.7706 180.58C40.3296 180.255 39.8922 179.927 39.4583 179.595C36.562 177.39 33.7927 175.03 31.1574 172.526C30.8752 172.258 30.593 171.989 30.3143 171.718C30.3002 171.704 30.2861 171.69 30.2684 171.675C30.0956 171.503 29.9192 171.333 29.7463 171.16C28.5433 169.975 27.3686 168.754 26.2256 167.506C30.3354 155.201 38.6892 144.836 49.5477 138.155C49.6077 138.116 49.6782 138.073 49.7594 138.028C49.7664 138.024 49.7699 138.02 49.777 138.017C51.869 136.74 54.0491 135.604 56.314 134.616C63.0379 131.674 70.4639 130.044 78.2708 130.044C99.8855 130.044 118.576 142.54 127.519 160.701C127.519 160.701 127.526 160.715 127.54 160.746C127.543 160.757 127.55 160.771 127.557 160.785C127.575 160.824 127.6 160.88 127.631 160.944C127.765 161.233 128.005 161.752 128.305 162.373C128.312 162.387 128.319 162.401 128.326 162.419C128.538 162.845 128.771 163.318 129.014 163.791C129.025 163.812 129.035 163.837 129.05 163.858C129.131 164.017 129.212 164.172 129.293 164.331C129.385 164.503 129.476 164.673 129.568 164.839C129.872 165.392 130.168 165.9 130.429 166.285C130.443 166.306 130.461 166.331 130.475 166.352C134.352 172.381 140.529 176.791 147.764 178.346C149.631 178.749 151.571 178.96 153.561 178.96C157.198 178.96 160.665 178.255 163.84 176.967Z" fill="#0096C8"/>
<path d="M121.261 89.8981C120.978 89.7182 120.71 89.5453 120.467 89.3831C120.594 89.4571 122.488 90.5507 125.406 92.2688C125.18 92.1524 124.961 92.0359 124.739 91.9195C124.22 91.6444 123.73 91.3727 123.268 91.1046C123.116 91.0199 122.968 90.9318 122.816 90.8436C122.252 90.5119 121.733 90.1944 121.261 89.8981Z" fill="#0078B7"/>
<path d="M196.218 72.6756C190.326 82.7474 183.2 87.5875 179.32 89.7747C166.415 97.0455 152.946 95.5109 141.541 94.2091C140.878 94.1315 140.222 94.0504 139.576 93.9657C131.466 92.8686 124.925 90.9424 120.466 89.3831L120.459 89.3796C120.325 89.2879 120.191 89.1997 120.06 89.1115C120.004 89.0727 119.947 89.0339 119.891 88.9951C119.835 88.9598 119.782 88.921 119.729 88.8857C119.623 88.8116 119.524 88.7446 119.425 88.6776C119.33 88.6105 119.238 88.5471 119.154 88.4871C119.111 88.4589 119.073 88.4306 119.034 88.4024C118.893 88.3036 118.776 88.219 118.681 88.1555C118.642 88.1237 118.607 88.099 118.575 88.0779C118.494 88.0214 118.441 87.9826 118.43 87.9755C118.416 87.965 118.399 87.9509 118.374 87.9367C118.36 87.9297 118.349 87.9191 118.335 87.9085C118.208 87.8168 118.085 87.7215 117.961 87.6298C117.718 87.4499 117.478 87.27 117.242 87.0866C117.026 86.9243 116.811 86.7549 116.6 86.5891C116.42 86.4445 116.236 86.2999 116.06 86.1517C115.746 85.8977 115.432 85.6402 115.125 85.3756C114.903 85.1886 114.68 84.9946 114.462 84.8006C114.155 84.5324 113.855 84.2608 113.555 83.9856C113.298 83.7493 113.04 83.5094 112.79 83.2695C112.536 83.0261 112.285 82.7827 112.038 82.5357C111.22 81.7243 110.426 80.8847 109.66 80.0204C96.7664 67.0382 78.9018 59.002 59.1604 59.002C52.0166 59.002 45.1234 60.0532 38.6182 62.0111C39.1685 60.3743 63.877 59.1572 68.4208 45.4906C72.1038 34.4099 59.619 29.3334 54.7648 27.8094C53.6288 27.4531 52.9127 27.2908 52.9127 27.2908C53.4736 27.2732 54.0381 27.2661 54.606 27.2661C55.0541 27.2661 55.5056 27.2696 55.9536 27.2802C56.1512 27.2838 56.3487 27.2908 56.5498 27.2943C57.7246 27.3296 58.8923 27.4002 60.0494 27.4989C60.2328 27.5131 60.4092 27.5307 60.5891 27.5483C61.076 27.5942 61.5628 27.6436 62.0461 27.7C62.4412 27.7459 62.8363 27.7988 63.2279 27.8517C63.4396 27.8799 63.6548 27.9117 63.8664 27.9434C64.0358 27.9681 64.2051 27.9928 64.378 28.0211C64.6073 28.0563 64.833 28.0916 65.0588 28.1304C65.3093 28.1727 65.5633 28.2151 65.8138 28.2609C66.1983 28.3315 66.5828 28.4021 66.9673 28.4797C67.2319 28.5326 67.4965 28.589 67.7611 28.6419C68.2091 28.7372 68.6536 28.836 69.0981 28.9418C69.3204 28.9947 69.5426 29.0476 69.7613 29.1041C70.6609 29.3263 71.5499 29.5662 72.4354 29.8273C72.64 29.8872 72.8411 29.9472 73.0422 30.0107C74.1252 30.3388 75.1941 30.6986 76.2524 31.0867H76.256C76.4712 31.1643 76.6828 31.2454 76.8945 31.3266C77.1167 31.4077 77.339 31.4924 77.5577 31.5806C77.907 31.7146 78.2562 31.8522 78.6019 31.9969C78.796 32.078 78.99 32.1556 79.1805 32.2403C79.3957 32.3285 79.6109 32.4202 79.8225 32.5154C79.9284 32.5613 80.0377 32.6072 80.1436 32.6565C80.4611 32.7941 80.7786 32.9388 81.0925 33.0869C81.3783 33.2139 81.6605 33.348 81.9392 33.4856C82.1685 33.5914 82.3943 33.7043 82.6201 33.8172C82.7894 33.8983 82.9552 33.983 83.1245 34.0712C83.3292 34.17 83.5338 34.2758 83.7384 34.3852C83.8971 34.4663 84.0594 34.551 84.2181 34.6356C84.4122 34.7379 84.6097 34.8438 84.8038 34.9531C84.9308 35.0166 85.0578 35.0872 85.1848 35.1613C85.4493 35.3059 85.7104 35.4505 85.9715 35.6022C86.2748 35.7716 86.5747 35.948 86.871 36.1279C87.1109 36.269 87.3543 36.4136 87.5907 36.5618C88.0528 36.8405 88.5114 37.1262 88.963 37.419C89.2346 37.5954 89.5063 37.7753 89.7744 37.9553C90.8892 38.6961 91.9757 39.4722 93.0411 40.2836C94.4628 41.6665 95.9903 42.9435 97.6096 44.0971C104.094 48.7326 112.038 51.4596 120.618 51.4596C130.531 51.4596 139.59 47.8189 146.54 41.8041C146.54 41.8041 126.869 65.2391 140.43 81.6855C153.99 98.1285 181.056 94.4702 196.218 72.6756Z" fill="#0078B7"/>
<path d="M196.222 72.6687C196.222 72.6727 196.218 72.6727 196.218 72.6766" stroke="#231F20" stroke-width="1.2286" stroke-miterlimit="10"/>
<path d="M147.764 178.347C140.528 176.791 134.351 172.381 130.474 166.352C130.46 166.331 130.443 166.306 130.428 166.285C130.167 165.901 129.871 165.393 129.568 164.839C129.476 164.673 129.384 164.504 129.292 164.331C129.211 164.172 129.13 164.017 129.049 163.858C129.035 163.837 129.024 163.812 129.014 163.791C128.77 163.318 128.538 162.846 128.326 162.419C128.319 162.401 128.312 162.387 128.305 162.373C128.005 161.752 127.765 161.233 127.631 160.944C127.599 160.881 127.574 160.824 127.557 160.785C127.55 160.771 127.543 160.757 127.539 160.747C127.525 160.715 127.518 160.701 127.518 160.701C118.575 142.54 99.885 130.044 78.2703 130.044C70.4633 130.044 63.0374 131.674 56.3134 134.616C61.0654 131.808 66.1489 127.526 64.2298 121.818C61.1289 112.585 42.541 114.124 42.541 113.958C42.541 113.958 42.541 113.954 42.5445 113.954C54.3696 107.026 68.135 103.057 82.8282 103.057C100.157 103.057 116.201 108.581 129.289 117.962C131.554 119.584 133.727 121.32 135.805 123.165C135.794 123.116 135.784 123.07 135.773 123.024L136.09 123.426C138.271 126.146 140.719 128.647 143.393 130.88C147.485 134.299 152.114 137.096 157.13 139.132C157.13 139.132 146.272 140.868 138.398 149.758C130.524 158.648 138.257 174.706 147.764 178.347Z" fill="url(#paint1_linear_59_862)"/>
<path d="M191.311 140.829C186.661 142.194 181.74 142.928 176.65 142.928C169.746 142.928 163.156 141.58 157.13 139.132C152.114 137.096 147.485 134.299 143.393 130.88C140.719 128.647 138.271 126.146 136.091 123.426L135.773 123.024C135.784 123.07 135.794 123.116 135.805 123.165C133.727 121.32 131.554 119.585 129.289 117.962C116.201 108.581 100.157 103.057 82.8284 103.057C68.1353 103.057 54.3699 107.026 42.5448 113.954C42.5413 113.954 42.5413 113.958 42.5413 113.958C29.3404 121.691 18.556 133.106 11.6098 146.801C11.6062 146.801 11.6062 146.805 11.6062 146.805C11.5851 146.77 11.5674 146.731 11.5498 146.695C11.5145 146.628 11.4792 146.561 11.444 146.491C11.3205 146.262 11.2005 146.032 11.0841 145.799C10.9712 145.588 10.8619 145.376 10.756 145.161C10.6079 144.872 10.4597 144.582 10.3186 144.289C10.2339 144.124 10.1528 143.954 10.0752 143.789C9.91644 143.468 9.76122 143.15 9.60952 142.825C8.99922 141.548 8.42066 140.254 7.8668 138.945C7.75744 138.687 7.64808 138.43 7.54225 138.169C7.47522 138.007 7.40819 137.841 7.34116 137.678C7.22475 137.396 7.11186 137.114 7.0025 136.832C6.86491 136.486 6.72733 136.14 6.5968 135.791C6.48039 135.491 6.36397 135.191 6.25461 134.888C6.19111 134.726 6.13114 134.56 6.07117 134.398C5.98297 134.154 5.89478 133.907 5.80658 133.664C5.72192 133.42 5.63372 133.177 5.54906 132.934C5.25978 132.105 4.98108 131.272 4.7165 130.436C4.6142 130.115 4.51189 129.797 4.41664 129.476C4.24025 128.915 4.07445 128.351 3.91217 127.787C3.82045 127.48 3.73578 127.173 3.64759 126.862C3.60878 126.725 3.5735 126.591 3.5347 126.453C3.45003 126.143 3.36536 125.832 3.28423 125.518C3.256 125.402 3.22425 125.289 3.19603 125.172C3.10078 124.813 3.00906 124.453 2.92086 124.089C2.81503 123.659 2.7092 123.229 2.61042 122.798C2.40581 121.938 2.21884 121.07 2.04245 120.202C1.97189 119.867 1.90487 119.532 1.84137 119.196C1.81314 119.062 1.78845 118.925 1.76376 118.791C1.68614 118.389 1.61206 117.986 1.54151 117.581C1.47095 117.193 1.40745 116.808 1.34395 116.42C1.31926 116.293 1.29809 116.166 1.28045 116.039C1.23459 115.76 1.19226 115.482 1.14992 115.203C1.11112 114.967 1.07584 114.73 1.04409 114.49C1.00881 114.258 0.977062 114.025 0.945312 113.788L0.952368 113.785C0.959424 113.778 0.962951 113.774 0.970007 113.771C7.59164 107.103 13.5465 102.059 18.1291 98.4496C23.2691 94.0575 27.9398 90.6215 31.7181 88.0356C41.5923 81.2764 48.221 78.3836 50.821 77.3042C50.9621 77.2442 51.082 77.1948 51.1632 77.163C51.1773 77.156 51.1879 77.1489 51.202 77.1454C51.2937 77.1101 51.3854 77.0713 51.4807 77.036C52.9094 76.4857 54.758 75.8401 56.9487 75.251C58.7761 74.7606 62.766 73.7905 67.9518 73.473H67.9659C72.4921 73.1943 76.1433 73.5259 79.3289 73.9563C79.343 73.9598 79.3571 73.9598 79.3677 73.9598C80.1685 74.0692 80.9376 74.1821 81.6819 74.295C81.6854 74.295 81.6925 74.295 81.696 74.2985C81.7313 74.302 81.7631 74.3091 81.7983 74.3126C81.7983 74.3126 83.3999 74.556 86.1199 75.1557C86.2998 75.1945 86.4867 75.2369 86.6772 75.2792C87.0194 75.3568 87.3757 75.438 87.7426 75.5226C91.7749 76.4787 97.5251 78.0697 103.928 80.5532C104.164 80.6485 104.404 80.7402 104.644 80.8355C105.099 81.0154 105.523 81.1882 105.523 81.1882C106.249 81.4881 106.983 81.7985 107.72 82.1196C107.742 82.1301 107.77 82.1407 107.777 82.1443C113.39 84.7901 117.196 87.1572 118.198 87.8169C118.23 87.8381 118.261 87.8592 118.286 87.8769C118.304 87.8875 118.318 87.8981 118.335 87.9086C118.35 87.9192 118.36 87.9298 118.374 87.9369C118.399 87.951 118.417 87.9651 118.431 87.9757C118.441 87.9827 118.494 88.0215 118.575 88.078C118.607 88.0991 118.642 88.1238 118.681 88.1556C118.776 88.2191 118.893 88.3037 119.034 88.4025C119.073 88.4307 119.112 88.459 119.154 88.4872C119.239 88.5472 119.33 88.6107 119.426 88.6777C119.524 88.7447 119.623 88.8117 119.729 88.8858C119.782 88.9211 119.835 88.9599 119.891 88.9952C119.948 89.034 120.004 89.0728 120.061 89.1116C129.145 95.3558 136.874 103.53 136.874 103.53C140.871 107.717 153.691 117.355 191.311 140.829Z" fill="url(#paint2_linear_59_862)"/>
<path d="M199.654 108.366C199.633 108.641 199.608 108.913 199.584 109.188C199.562 109.414 199.541 109.636 199.52 109.855C199.499 110.07 199.478 110.285 199.453 110.5C199.432 110.719 199.407 110.938 199.383 111.157C199.361 111.358 199.34 111.559 199.315 111.76C199.284 112.021 199.252 112.282 199.22 112.543C199.206 112.649 199.196 112.755 199.178 112.861C199.139 113.178 199.097 113.492 199.054 113.802C198.973 114.388 198.889 114.97 198.797 115.549C198.758 115.81 198.716 116.071 198.67 116.328C198.61 116.716 198.543 117.101 198.476 117.485C198.409 117.866 198.342 118.244 198.268 118.621C198.194 119.027 198.113 119.436 198.031 119.842C198.024 119.874 198.017 119.906 198.01 119.937C197.943 120.269 197.876 120.6 197.806 120.932C197.696 121.447 197.583 121.959 197.463 122.47C197.368 122.897 197.266 123.32 197.164 123.744C197.16 123.758 197.156 123.775 197.153 123.793C196.955 124.594 196.751 125.395 196.536 126.188C196.521 126.241 196.507 126.298 196.49 126.351C196.384 126.742 196.275 127.13 196.165 127.518C195.925 128.351 195.678 129.18 195.421 130.002C195.16 130.827 194.892 131.646 194.613 132.461C194.479 132.852 194.341 133.244 194.2 133.636C194.193 133.664 194.183 133.692 194.168 133.72C194.031 134.108 193.89 134.493 193.749 134.877C193.745 134.884 193.742 134.895 193.738 134.902C193.59 135.301 193.438 135.696 193.287 136.091C193.131 136.49 192.976 136.888 192.814 137.287C192.655 137.685 192.493 138.081 192.327 138.476C192.165 138.871 191.995 139.262 191.826 139.657C191.657 140.049 191.484 140.441 191.311 140.829C181.454 141.411 174.653 139.248 170.402 137.312C156.816 131.124 153.476 120.036 136.874 103.53C130.101 96.7915 123.966 91.9867 120.061 89.1116C120.191 89.1998 120.325 89.288 120.459 89.3797L120.466 89.3832C120.47 89.3867 120.477 89.3903 120.484 89.3938C120.491 89.3973 120.498 89.4044 120.509 89.4079C120.519 89.415 120.53 89.422 120.544 89.4291C120.766 89.5808 121.01 89.736 121.26 89.8983C121.733 90.1946 122.251 90.5121 122.816 90.8437C122.967 90.9319 123.116 91.0201 123.267 91.1048C123.729 91.3729 124.22 91.6445 124.738 91.9197C124.961 92.0361 125.179 92.1525 125.405 92.2689C125.416 92.276 125.426 92.2795 125.437 92.2866C143.644 104.412 148.586 110.472 161.766 116.399C163.554 117.203 165.124 117.909 166.595 118.498C169.717 119.743 172.399 120.459 175.821 120.463C184.531 120.477 191.554 115.863 195.989 111.964C197.541 110.603 198.776 109.326 199.654 108.366Z" fill="#48CAE4"/>
<path d="M200 100.002C200 101.268 199.979 102.221 199.969 102.584C199.958 103.018 199.944 103.452 199.926 103.882C199.916 104.161 199.905 104.44 199.888 104.719C199.863 105.315 199.831 105.911 199.789 106.507C199.775 106.768 199.757 107.033 199.736 107.294C199.711 107.65 199.686 108.01 199.655 108.366C198.776 109.326 197.542 110.603 195.989 111.965C191.555 115.863 184.531 120.477 175.821 120.463C172.399 120.459 169.718 119.743 166.596 118.498C165.125 117.909 163.555 117.203 161.766 116.399C148.587 110.472 143.644 104.412 125.437 92.2866C125.427 92.2796 125.416 92.2761 125.406 92.269C122.753 90.7062 120.947 89.662 120.544 89.4291C120.53 89.4221 120.52 89.415 120.509 89.408C120.499 89.4045 120.491 89.3974 120.484 89.3939C120.477 89.3903 120.47 89.3868 120.467 89.3833C124.926 90.9426 131.466 92.8687 139.577 93.9659C140.222 94.0505 140.878 94.1317 141.542 94.2093C152.947 95.511 166.416 97.0456 179.321 89.7749C183.201 87.5876 190.327 82.7475 196.219 72.6758C196.219 72.6722 196.222 72.6722 196.222 72.6687C196.275 72.8627 196.332 73.0532 196.381 73.2473C196.511 73.72 196.638 74.1927 196.765 74.6689C196.889 75.1452 197.009 75.625 197.125 76.1012C197.245 76.581 197.358 77.0608 197.467 77.5406C197.58 78.0239 197.686 78.5072 197.788 78.9905C197.901 79.5126 198.011 80.0382 198.11 80.5639C198.194 80.9731 198.272 81.3823 198.346 81.7915C198.36 81.855 198.371 81.9185 198.381 81.982C198.459 82.4124 198.536 82.8428 198.607 83.2732C198.618 83.3437 198.632 83.4143 198.642 83.4848C198.713 83.9047 198.78 84.3245 198.843 84.7478C198.932 85.3263 199.016 85.9014 199.094 86.4799C199.147 86.8574 199.193 87.2349 199.238 87.6123C199.351 88.519 199.454 89.4291 199.538 90.3464C199.563 90.6004 199.588 90.8579 199.609 91.1154C199.697 92.0997 199.771 93.091 199.828 94.0858C199.852 94.5197 199.877 94.9572 199.895 95.3946C199.912 95.7509 199.926 96.1072 199.937 96.4635C199.94 96.4847 199.94 96.5059 199.94 96.527C199.948 96.7669 199.958 97.0033 199.962 97.2432C199.965 97.2784 199.965 97.3102 199.965 97.3455C199.976 97.6947 199.983 98.044 199.99 98.3932C199.997 99.0282 200 99.5715 200 100.002Z" fill="#91E0EF"/>
<path d="M146.54 41.8042C139.59 47.8191 130.531 51.4597 120.618 51.4597C112.039 51.4597 104.094 48.7328 97.61 44.0973C95.9907 42.9437 94.4632 41.6666 93.0415 40.2837C91.9761 39.4724 90.8896 38.6962 89.7748 37.9554C89.5067 37.772 89.2351 37.5956 88.9634 37.4192C88.5119 37.1264 88.0533 36.8406 87.5911 36.5619C87.3548 36.4138 87.1113 36.2691 86.8715 36.128C86.5751 35.9481 86.2753 35.7717 85.9719 35.6024C85.7108 35.4507 85.4498 35.3061 85.1852 35.1614C85.0582 35.0873 84.9312 35.0168 84.8042 34.9533C84.6102 34.8439 84.4126 34.7381 84.2186 34.6358C84.0598 34.5511 83.8975 34.4664 83.7388 34.3853C83.5342 34.2759 83.3296 34.1701 83.125 34.0713C82.9556 33.9831 82.7898 33.8985 82.6205 33.8173C82.3947 33.7044 82.1689 33.5916 81.9396 33.4857C81.6609 33.3481 81.3787 33.2141 81.093 33.0871C80.779 32.9389 80.4615 32.7943 80.144 32.6567C80.0382 32.6073 79.9288 32.5614 79.823 32.5156C79.6113 32.4203 79.3961 32.3286 79.1809 32.2404C78.9904 32.1558 78.7964 32.0781 78.6024 31.997C78.2566 31.8524 77.9074 31.7148 77.5581 31.5807C77.3394 31.4925 77.1172 31.4079 76.8949 31.3267C76.6832 31.2421 76.4716 31.1644 76.2564 31.0868H76.2529C75.1945 30.6988 74.1256 30.3389 73.0426 30.0109C72.8415 29.9474 72.6369 29.8839 72.4358 29.8274C71.5503 29.5664 70.6613 29.3265 69.7618 29.1042C69.543 29.0478 69.3208 28.9949 69.0985 28.942C68.654 28.8361 68.2095 28.7373 67.7615 28.6421C67.4969 28.5892 67.2323 28.5327 66.9678 28.4798C66.5832 28.4022 66.1987 28.3316 65.8142 28.2611C65.5637 28.2152 65.3097 28.1729 65.0592 28.1306C64.8335 28.0918 64.6077 28.0565 64.3784 28.0212C64.2055 27.993 64.0362 27.9683 63.8668 27.9436C63.6552 27.9118 63.44 27.8801 63.2283 27.8519C62.8367 27.799 62.4416 27.746 62.0465 27.7002C61.5632 27.6437 61.0764 27.5943 60.5896 27.5485C60.4096 27.5308 60.2332 27.5132 60.0498 27.4991C58.8927 27.4003 57.725 27.3298 56.5503 27.2945C56.3492 27.291 56.1516 27.2839 55.9541 27.2804C55.506 27.2698 55.0545 27.2663 54.6064 27.2663C54.0385 27.2663 53.474 27.2733 52.9131 27.291C52.4933 27.3015 52.077 27.3156 51.6608 27.3368L51.2021 27.2663C113.612 5.86679 146.54 41.8042 146.54 41.8042Z" fill="#91E0EF"/>
<path d="M54.7656 27.8094L51.6611 27.3366C52.0774 27.3155 52.4937 27.3014 52.9135 27.2908C52.9135 27.2908 53.6296 27.453 54.7656 27.8094Z" fill="#91E0EF"/>
<path d="M132.267 194.677C131.741 194.857 131.212 195.033 130.68 195.202C130.249 195.34 129.815 195.477 129.381 195.608C129.265 195.647 129.148 195.682 129.029 195.717C127.977 196.038 126.919 196.338 125.85 196.624C125.31 196.769 124.763 196.91 124.22 197.044C123.673 197.181 123.127 197.312 122.58 197.439H122.576C122.051 197.559 121.521 197.679 120.989 197.792C119.175 198.176 117.341 198.515 115.489 198.804C115.277 198.836 115.066 198.871 114.854 198.899C114.36 198.974 113.863 199.044 113.365 199.111C112.822 199.185 112.275 199.252 111.728 199.319C111.136 199.386 110.543 199.45 109.947 199.51C109.464 199.556 108.973 199.601 108.49 199.644C107.537 199.721 106.585 199.788 105.625 199.841C105.096 199.873 104.567 199.898 104.034 199.919C103.72 199.933 103.406 199.944 103.092 199.951L102.754 199.961C102.683 199.965 102.609 199.965 102.538 199.968C102.165 199.979 101.787 199.986 101.413 199.99C100.94 199.997 100.471 200 99.9985 200C98.8872 200 97.7795 199.982 96.6789 199.944C96.2132 199.93 95.7475 199.912 95.2819 199.891C94.9714 199.877 94.6574 199.859 94.347 199.841C94.3329 199.841 94.3153 199.841 94.3011 199.838C94.1283 199.831 93.9554 199.82 93.7826 199.81C93.4827 199.792 93.1793 199.771 92.8759 199.75C92.7454 199.743 92.6113 199.732 92.4808 199.721C92.0786 199.69 91.673 199.658 91.2673 199.623C88.8895 199.418 86.533 199.129 84.2047 198.758C84.06 198.737 83.9154 198.712 83.7707 198.688C82.6701 198.508 81.5765 198.31 80.4864 198.095C78.5426 197.711 76.6199 197.27 74.7185 196.776C74.2563 196.656 73.7977 196.532 73.3391 196.405C72.2349 196.102 71.1413 195.777 70.0548 195.439C69.8643 195.382 69.6773 195.322 69.4903 195.259C69.067 195.125 68.6472 194.987 68.2309 194.846C68.0263 194.779 67.8217 194.712 67.6171 194.641C64.7419 193.657 61.9233 192.546 59.1751 191.315C58.9035 191.195 58.6354 191.071 58.3637 190.948C57.9333 190.75 57.5029 190.549 57.0726 190.345C56.5187 190.08 55.9719 189.812 55.4251 189.54C55.0053 189.332 54.589 189.12 54.1692 188.905C54.1551 188.898 54.141 188.891 54.1269 188.884C53.6824 188.651 53.2379 188.418 52.7969 188.182C52.5817 188.069 52.37 187.949 52.1548 187.833C51.7844 187.632 51.414 187.427 51.0471 187.219C50.8566 187.113 50.6661 187.004 50.4756 186.894C50.0911 186.676 49.7101 186.453 49.3291 186.231C49.3291 186.231 55.1429 121.867 132.267 194.677Z" fill="#0078B7"/>
</g>
<defs>
<linearGradient id="paint0_linear_59_862" x1="91.607" y1="41.8041" x2="91.607" y2="0" gradientUnits="userSpaceOnUse">
<stop stop-color="#AEE8F4"/>
<stop offset="1" stop-color="white"/>
</linearGradient>
<linearGradient id="paint1_linear_59_862" x1="99.8356" y1="178.347" x2="99.8356" y2="103.057" gradientUnits="userSpaceOnUse">
<stop offset="0.2077" stop-color="#033E8A"/>
<stop offset="0.8453" stop-color="#0078B7"/>
</linearGradient>
<linearGradient id="paint2_linear_59_862" x1="0.945348" y1="110.088" x2="191.311" y2="110.088" gradientUnits="userSpaceOnUse">
<stop offset="0.3209" stop-color="#00B4D7"/>
<stop offset="1" stop-color="#0078B7"/>
</linearGradient>
<clipPath id="clip0_59_862">
<rect width="200" height="200" fill="white"/>
</clipPath>
</defs>
</svg>
